<svg width="512" height="512" viewBox="22 19 474 474" xmlns="http://www.w3.org/2000/svg">
  <!-- Контур батареи -->
  <rect x="32" y="144" width="400" height="224" rx="45.7" ry="45.7" 
        style="fill:none;stroke:#ffffff;stroke-linecap:square;stroke-miterlimit:10;stroke-width:20px"/>
  
  <!-- Зеленое заполнение 40% -->
  <rect x="65" y="177" width="133.6" height="158" rx="30" ry="30" 
        style="fill:#4CAF50;stroke:none;opacity:0.8"/>
  
  <!-- Положительный контакт -->
  <line x1="480" y1="218.67" x2="480" y2="293.33" 
        style="fill:none;stroke:#ffffff;stroke-linecap:round;stroke-miterlimit:10;stroke-width:32px"/>
  
  <!-- Молния с обводкой -->
  <path d="M276.07,280.89l27.07-35.49a5.2,5.2,0,0,0,.77-1.91,5,5,0,0,0,.08-.66,5,5,0,0,0-.08-1.29,5.11,5.11,0,0,0-.68-1.75,4.76,4.76,0,0,0-.78-.95,3.48,3.48,0,0,0-.48-.38,4,4,0,0,0-1.11-.55,4.28,4.28,0,0,0-1.31-.2H237.93l12.12-43.21L253.28,183l6.21-22.16L260,159l7.79-27.76h0a3.51,3.51,0,0,0,.05-.55c0-.06,0-.11,0-.16s0-.26-.05-.38,0-.09,0-.14a2.2,2.2,0,0,0-.17-.45h0a3.77,3.77,0,0,0-.26-.39l-.09-.1a2.73,2.73,0,0,0-.25-.23l-.1-.08a3.14,3.14,0,0,0-.39-.24h0a2,2,0,0,0-.41-.14l-.13,0-.33,0h-.13a2.3,2.3,0,0,0-.45,0h0a1.9,1.9,0,0,0-.42.15l-.13.07-.3.21-.11.1a2.4,2.4,0,0,0-.36.41h0l-18,23.63-13.14,17.22L222.77,183l-63.71,83.55a5.72,5.72,0,0,0-.44.8,4.78,4.78,0,0,0-.35,1.09,4.7,4.7,0,0,0-.08,1.29,4.86,4.86,0,0,0,2,3.71,4.74,4.74,0,0,0,.54.31,4.31,4.31,0,0,0,1.89.43h61.62L194.42,380.6a3.64,3.64,0,0,0,0,.56s0,.1,0,.15a2.32,2.32,0,0,0,.06.38.58.58,0,0,0,0,.14,2.2,2.2,0,0,0,.17.45h0a3.62,3.62,0,0,0,.26.38l.09.1.25.24a.39.39,0,0,1,.1.08,2.22,2.22,0,0,0,.39.23h0a2.83,2.83,0,0,0,.41.14l.13,0a1.86,1.86,0,0,0,.33,0h.13a2.32,2.32,0,0,0,.45-.06h0a2.05,2.05,0,0,0,.41-.16l.13-.07.3-.21.11-.09a2.4,2.4,0,0,0,.36-.41h0L221.82,352l17.53-23Z"
        style="fill:#ffffff;stroke:#000000;stroke-width:2.25px"/>
</svg>